<mxfile host="app.diagrams.net" modified="2021-12-15T08:50:52.617Z" agent="5.0 (Windows NT 10.0; Win64; x64) AppleWebKit/537.36 (KHTML, like Gecko) Chrome/96.0.4664.93 Safari/537.36 Edg/96.0.1054.53" etag="vJyyQZ6yjLSxTDXA4tFc" version="15.9.6" type="github">
  <diagram id="xcgi6vPE5ineCo37UsH8" name="第 1 页">
    <mxGraphModel dx="1550" dy="867" grid="1" gridSize="10" guides="1" tooltips="1" connect="1" arrows="1" fold="1" page="1" pageScale="1" pageWidth="3300" pageHeight="4681" math="0" shadow="0">
      <root>
        <mxCell id="0" />
        <mxCell id="1" parent="0" />
        <mxCell id="-7QrmLo1FrAAc_gZFWbL-2" value="&lt;font style=&quot;font-size: 14px&quot;&gt;java -Djava.security.egd=file:/dev/./urandom -Xms512m -Xmx512m -XX:MetaspaceSize=256m -XX:MaxMetaspaceSize=256m -jar demo-xxxx-xxxx-management-1.0.0-SNAPSHOT.jar --spring.profiles.active=dev&lt;/font&gt;" style="text;whiteSpace=wrap;html=1;" vertex="1" parent="1">
          <mxGeometry x="290" y="320" width="1430" height="40" as="geometry" />
        </mxCell>
        <mxCell id="-7QrmLo1FrAAc_gZFWbL-4" style="edgeStyle=orthogonalEdgeStyle;rounded=0;orthogonalLoop=1;jettySize=auto;html=1;exitX=0.5;exitY=1;exitDx=0;exitDy=0;fontSize=14;entryX=0.007;entryY=0.25;entryDx=0;entryDy=0;entryPerimeter=0;strokeColor=#b85450;fillColor=#f8cecc;" edge="1" parent="1" source="-7QrmLo1FrAAc_gZFWbL-3" target="-7QrmLo1FrAAc_gZFWbL-2">
          <mxGeometry relative="1" as="geometry">
            <mxPoint x="310" y="280" as="targetPoint" />
            <Array as="points">
              <mxPoint x="375" y="240" />
              <mxPoint x="300" y="240" />
            </Array>
          </mxGeometry>
        </mxCell>
        <mxCell id="-7QrmLo1FrAAc_gZFWbL-5" style="edgeStyle=orthogonalEdgeStyle;rounded=0;orthogonalLoop=1;jettySize=auto;html=1;exitX=0.5;exitY=1;exitDx=0;exitDy=0;entryX=0.559;entryY=0.25;entryDx=0;entryDy=0;entryPerimeter=0;fontSize=14;strokeColor=#b85450;fillColor=#f8cecc;" edge="1" parent="1" source="-7QrmLo1FrAAc_gZFWbL-3" target="-7QrmLo1FrAAc_gZFWbL-2">
          <mxGeometry relative="1" as="geometry">
            <Array as="points">
              <mxPoint x="375" y="240" />
              <mxPoint x="1089" y="240" />
            </Array>
          </mxGeometry>
        </mxCell>
        <mxCell id="-7QrmLo1FrAAc_gZFWbL-3" value="&lt;font style=&quot;font-size: 13px&quot;&gt;java -jar&lt;br&gt;运行jar包的基础命令&lt;/font&gt;" style="rounded=0;whiteSpace=wrap;html=1;fontSize=14;" vertex="1" parent="1">
          <mxGeometry x="300" y="160" width="130" height="50" as="geometry" />
        </mxCell>
        <mxCell id="-7QrmLo1FrAAc_gZFWbL-26" style="edgeStyle=orthogonalEdgeStyle;rounded=0;orthogonalLoop=1;jettySize=auto;html=1;exitX=0.5;exitY=0;exitDx=0;exitDy=0;entryX=0.007;entryY=0.75;entryDx=0;entryDy=0;entryPerimeter=0;fontSize=13;fontColor=#000000;strokeColor=#1A1A1A;" edge="1" parent="1" source="-7QrmLo1FrAAc_gZFWbL-6" target="-7QrmLo1FrAAc_gZFWbL-2">
          <mxGeometry relative="1" as="geometry" />
        </mxCell>
        <mxCell id="-7QrmLo1FrAAc_gZFWbL-27" style="edgeStyle=orthogonalEdgeStyle;rounded=0;orthogonalLoop=1;jettySize=auto;html=1;exitX=0.5;exitY=0;exitDx=0;exitDy=0;entryX=0.028;entryY=0.75;entryDx=0;entryDy=0;entryPerimeter=0;fontSize=13;fontColor=#000000;strokeColor=#1A1A1A;" edge="1" parent="1" source="-7QrmLo1FrAAc_gZFWbL-6" target="-7QrmLo1FrAAc_gZFWbL-2">
          <mxGeometry relative="1" as="geometry" />
        </mxCell>
        <mxCell id="-7QrmLo1FrAAc_gZFWbL-6" value="&lt;font style=&quot;font-size: 13px&quot;&gt;java - D&lt;br&gt;&lt;span style=&quot;background-color: rgb(255 , 255 , 255)&quot;&gt;用来在启动一个java程序时设置系统属性值&lt;/span&gt;&lt;/font&gt;" style="rounded=0;whiteSpace=wrap;html=1;fontSize=14;" vertex="1" parent="1">
          <mxGeometry x="290" y="430" width="170" height="50" as="geometry" />
        </mxCell>
        <mxCell id="-7QrmLo1FrAAc_gZFWbL-10" style="edgeStyle=orthogonalEdgeStyle;rounded=0;orthogonalLoop=1;jettySize=auto;html=1;exitX=0.5;exitY=1;exitDx=0;exitDy=0;entryX=0.042;entryY=0.25;entryDx=0;entryDy=0;entryPerimeter=0;fontSize=13;strokeColor=#3333FF;" edge="1" parent="1" source="-7QrmLo1FrAAc_gZFWbL-9" target="-7QrmLo1FrAAc_gZFWbL-2">
          <mxGeometry relative="1" as="geometry">
            <Array as="points">
              <mxPoint x="870" y="260" />
              <mxPoint x="350" y="260" />
            </Array>
          </mxGeometry>
        </mxCell>
        <mxCell id="-7QrmLo1FrAAc_gZFWbL-11" style="edgeStyle=orthogonalEdgeStyle;rounded=0;orthogonalLoop=1;jettySize=auto;html=1;exitX=0.5;exitY=1;exitDx=0;exitDy=0;entryX=0.189;entryY=0.25;entryDx=0;entryDy=0;entryPerimeter=0;fontSize=13;strokeColor=#3333FF;" edge="1" parent="1" source="-7QrmLo1FrAAc_gZFWbL-9" target="-7QrmLo1FrAAc_gZFWbL-2">
          <mxGeometry relative="1" as="geometry">
            <Array as="points">
              <mxPoint x="870" y="260" />
              <mxPoint x="560" y="260" />
            </Array>
          </mxGeometry>
        </mxCell>
        <mxCell id="-7QrmLo1FrAAc_gZFWbL-9" value="&lt;span style=&quot;font-family: &amp;#34;pingfang sc&amp;#34; , &amp;#34;microsoft yahei&amp;#34; , &amp;#34;helvetica neue&amp;#34; , &amp;#34;helvetica&amp;#34; , &amp;#34;arial&amp;#34; , sans-serif ; background-color: rgb(255 , 255 , 255)&quot;&gt;java.security.egd=file:/dev/./urandom&lt;br&gt;用来减少tomcat启动时所需要生成随机数的时间&lt;br&gt;&lt;/span&gt;" style="rounded=0;whiteSpace=wrap;html=1;fontSize=13;" vertex="1" parent="1">
          <mxGeometry x="720" y="160" width="290" height="50" as="geometry" />
        </mxCell>
        <mxCell id="-7QrmLo1FrAAc_gZFWbL-13" style="edgeStyle=orthogonalEdgeStyle;rounded=0;orthogonalLoop=1;jettySize=auto;html=1;exitX=0.5;exitY=1;exitDx=0;exitDy=0;entryX=0.804;entryY=0.25;entryDx=0;entryDy=0;entryPerimeter=0;fontSize=13;strokeColor=#3333FF;" edge="1" parent="1" source="-7QrmLo1FrAAc_gZFWbL-12" target="-7QrmLo1FrAAc_gZFWbL-2">
          <mxGeometry relative="1" as="geometry" />
        </mxCell>
        <mxCell id="-7QrmLo1FrAAc_gZFWbL-14" style="edgeStyle=orthogonalEdgeStyle;rounded=0;orthogonalLoop=1;jettySize=auto;html=1;exitX=0.5;exitY=1;exitDx=0;exitDy=0;entryX=0.909;entryY=0.25;entryDx=0;entryDy=0;entryPerimeter=0;fontSize=13;strokeColor=#3333FF;" edge="1" parent="1" source="-7QrmLo1FrAAc_gZFWbL-12" target="-7QrmLo1FrAAc_gZFWbL-2">
          <mxGeometry relative="1" as="geometry" />
        </mxCell>
        <mxCell id="-7QrmLo1FrAAc_gZFWbL-12" value="&lt;font style=&quot;font-size: 13px&quot;&gt;&lt;span style=&quot;text-align: left&quot;&gt;&lt;font style=&quot;font-size: 13px&quot;&gt;--spring.profiles.active=dev&lt;br&gt;&lt;/font&gt;&lt;/span&gt;以dev配置环境来运行&lt;br&gt;&lt;/font&gt;" style="rounded=0;whiteSpace=wrap;html=1;fontSize=14;" vertex="1" parent="1">
          <mxGeometry x="1440" y="160" width="160" height="50" as="geometry" />
        </mxCell>
        <mxCell id="-7QrmLo1FrAAc_gZFWbL-17" style="edgeStyle=orthogonalEdgeStyle;rounded=0;orthogonalLoop=1;jettySize=auto;html=1;exitX=0.5;exitY=1;exitDx=0;exitDy=0;entryX=0.58;entryY=0.25;entryDx=0;entryDy=0;entryPerimeter=0;fontSize=13;strokeColor=#66FFB3;" edge="1" parent="1" source="-7QrmLo1FrAAc_gZFWbL-15" target="-7QrmLo1FrAAc_gZFWbL-2">
          <mxGeometry relative="1" as="geometry" />
        </mxCell>
        <mxCell id="-7QrmLo1FrAAc_gZFWbL-18" style="edgeStyle=orthogonalEdgeStyle;rounded=0;orthogonalLoop=1;jettySize=auto;html=1;exitX=0.5;exitY=1;exitDx=0;exitDy=0;entryX=0.783;entryY=0.25;entryDx=0;entryDy=0;entryPerimeter=0;fontSize=13;strokeColor=#66FFB3;" edge="1" parent="1" source="-7QrmLo1FrAAc_gZFWbL-15" target="-7QrmLo1FrAAc_gZFWbL-2">
          <mxGeometry relative="1" as="geometry" />
        </mxCell>
        <mxCell id="-7QrmLo1FrAAc_gZFWbL-15" value="&lt;div style=&quot;text-align: left&quot;&gt;&lt;span style=&quot;font-size: 13px&quot;&gt;jar包&lt;/span&gt;&lt;/div&gt;" style="rounded=0;whiteSpace=wrap;html=1;fontSize=14;" vertex="1" parent="1">
          <mxGeometry x="1200" y="160" width="90" height="50" as="geometry" />
        </mxCell>
        <mxCell id="-7QrmLo1FrAAc_gZFWbL-20" style="edgeStyle=orthogonalEdgeStyle;rounded=0;orthogonalLoop=1;jettySize=auto;html=1;exitX=0.5;exitY=0;exitDx=0;exitDy=0;entryX=0.203;entryY=0.5;entryDx=0;entryDy=0;entryPerimeter=0;fontSize=13;strokeColor=#3333FF;" edge="1" parent="1" source="-7QrmLo1FrAAc_gZFWbL-19" target="-7QrmLo1FrAAc_gZFWbL-2">
          <mxGeometry relative="1" as="geometry" />
        </mxCell>
        <mxCell id="-7QrmLo1FrAAc_gZFWbL-21" style="edgeStyle=orthogonalEdgeStyle;rounded=0;orthogonalLoop=1;jettySize=auto;html=1;exitX=0.5;exitY=0;exitDx=0;exitDy=0;entryX=0.287;entryY=0.5;entryDx=0;entryDy=0;entryPerimeter=0;fontSize=13;strokeColor=#3333FF;" edge="1" parent="1" source="-7QrmLo1FrAAc_gZFWbL-19" target="-7QrmLo1FrAAc_gZFWbL-2">
          <mxGeometry relative="1" as="geometry" />
        </mxCell>
        <mxCell id="-7QrmLo1FrAAc_gZFWbL-19" value="&lt;font style=&quot;font-size: 13px&quot;&gt;-Xms&amp;amp;-Xmx&lt;br&gt;应用程序初始内存和最大使用内存&lt;/font&gt;" style="rounded=0;whiteSpace=wrap;html=1;fontSize=14;" vertex="1" parent="1">
          <mxGeometry x="570" y="430" width="130" height="50" as="geometry" />
        </mxCell>
        <mxCell id="-7QrmLo1FrAAc_gZFWbL-24" style="edgeStyle=orthogonalEdgeStyle;rounded=0;orthogonalLoop=1;jettySize=auto;html=1;exitX=0.5;exitY=0;exitDx=0;exitDy=0;entryX=0.545;entryY=0.75;entryDx=0;entryDy=0;entryPerimeter=0;fontSize=13;fontColor=#000000;strokeColor=#FF0000;" edge="1" parent="1" source="-7QrmLo1FrAAc_gZFWbL-22" target="-7QrmLo1FrAAc_gZFWbL-2">
          <mxGeometry relative="1" as="geometry" />
        </mxCell>
        <mxCell id="-7QrmLo1FrAAc_gZFWbL-25" style="edgeStyle=orthogonalEdgeStyle;rounded=0;orthogonalLoop=1;jettySize=auto;html=1;exitX=0.5;exitY=0;exitDx=0;exitDy=0;entryX=0.301;entryY=0.5;entryDx=0;entryDy=0;entryPerimeter=0;fontSize=13;fontColor=#000000;strokeColor=#FF0000;" edge="1" parent="1" source="-7QrmLo1FrAAc_gZFWbL-22" target="-7QrmLo1FrAAc_gZFWbL-2">
          <mxGeometry relative="1" as="geometry" />
        </mxCell>
        <mxCell id="-7QrmLo1FrAAc_gZFWbL-22" value="&lt;font style=&quot;font-size: 13px&quot;&gt;&lt;span style=&quot;text-align: left&quot;&gt;-XX:MetaspaceSize&lt;/span&gt;&lt;br&gt;设置元空间大小&lt;/font&gt;" style="rounded=0;whiteSpace=wrap;html=1;fontSize=14;" vertex="1" parent="1">
          <mxGeometry x="800" y="430" width="200" height="50" as="geometry" />
        </mxCell>
        <mxCell id="-7QrmLo1FrAAc_gZFWbL-28" value="&lt;h2&gt;&lt;font style=&quot;font-size: 17px&quot;&gt;HiF&lt;/font&gt;&lt;/h2&gt;" style="text;html=1;align=center;verticalAlign=middle;resizable=0;points=[];autosize=1;strokeColor=none;fillColor=none;fontSize=13;fontColor=#330000;" vertex="1" parent="1">
          <mxGeometry x="1210" y="445" width="40" height="50" as="geometry" />
        </mxCell>
      </root>
    </mxGraphModel>
  </diagram>
</mxfile>
